<svg xmlns="http://www.w3.org/2000/svg" fill="none" viewBox="0 0 32 32" height="32" width="32">
<path fill="#3C873A" d="M15.9942 31C15.6043 31 15.2086 30.8928 14.8653 30.6904L11.2748 28.5176C10.7395 28.2081 11.0013 28.1009 11.1759 28.0414C11.8917 27.7854 12.0372 27.7318 12.7995 27.2853C12.8809 27.2377 12.9857 27.2556 13.0671 27.3092L15.8254 28.9819C15.9244 29.0415 16.064 29.0415 16.1571 28.9819L26.9051 22.6361C27.004 22.5765 27.068 22.4575 27.068 22.3384V9.64669C27.068 9.52168 27.004 9.40857 26.8993 9.34309L16.1571 3.00317C16.0582 2.94365 15.9244 2.94365 15.8254 3.00317L5.08908 9.34904C4.98433 9.40857 4.92032 9.52763 4.92032 9.65264V22.3384C4.92032 22.4575 4.98433 22.5765 5.08908 22.6301L8.03357 24.3684C9.63384 25.1839 10.6115 24.2255 10.6115 23.2552V10.7301C10.6115 10.5515 10.7511 10.4146 10.9257 10.4146H12.2874C12.4561 10.4146 12.6016 10.5515 12.6016 10.7301V23.2611C12.6016 25.4399 11.4378 26.69 9.41853 26.69C8.79588 26.69 8.30707 26.69 6.94539 25.9995L4.12892 24.3386C3.43062 23.9279 3 23.1599 3 22.3325V9.64669C3 8.82518 3.43062 8.05129 4.12892 7.64054L14.8653 1.29467C15.5461 0.901776 16.4481 0.901776 17.1231 1.29467L27.8711 7.64649C28.5694 8.05725 29 8.82518 29 9.65264V22.3384C29 23.1599 28.5694 23.9279 27.8711 24.3446L17.1231 30.6904C16.7798 30.8928 16.3899 31 15.9942 31ZM24.6705 18.4928C24.6705 16.1176 23.0994 15.4866 19.7999 15.0401C16.4597 14.5877 16.1222 14.3555 16.1222 13.5578C16.1222 12.897 16.4073 12.016 18.8805 12.016C21.0859 12.016 21.9006 12.5041 22.2381 14.0281C22.2672 14.1709 22.3953 14.2781 22.5407 14.2781H23.9373C24.0246 14.2781 24.1061 14.2424 24.1643 14.1769C24.2225 14.1114 24.2516 14.0221 24.2457 13.9328C24.0304 11.3076 22.3254 10.0872 18.8805 10.0872C15.8138 10.0872 13.9866 11.4088 13.9866 13.6292C13.9866 16.0342 15.808 16.701 18.7466 16.9986C22.2672 17.3498 22.5407 17.8797 22.5407 18.5881C22.5407 19.8144 21.5748 20.3382 19.3111 20.3382C16.4655 20.3382 15.8429 19.606 15.6334 18.1594C15.6101 18.0047 15.4821 17.8916 15.325 17.8916H13.9342C13.7596 17.8916 13.6258 18.0344 13.6258 18.2071C13.6258 20.0584 14.6092 22.267 19.3169 22.267C22.7153 22.261 24.6705 20.8859 24.6705 18.4928V18.4928Z"></path>
</svg>
