<svg xmlns="http://www.w3.org/2000/svg" width="32" height="32" fill="none" viewBox="0 0 32 32"><path fill="#F7DF1E" d="M2 2H30V30H2V2Z"/><path fill="#000" d="M9.36229 25.3988L11.5049 24.1021C11.9184 24.835 12.2944 25.4551 13.1964 25.4551C14.061 25.4551 14.6063 25.117 14.6063 23.8014V14.8547H17.2375V23.8386C17.2375 26.5639 15.64 27.8044 13.3092 27.8044C11.2043 27.8044 9.98245 26.7143 9.36218 25.3986"/><path fill="#000" d="M18.6666 25.1168L20.809 23.8764C21.3731 24.7975 22.1061 25.4741 23.4029 25.4741C24.4932 25.4741 25.1884 24.9289 25.1884 24.1771C25.1884 23.275 24.4742 22.9554 23.2713 22.4293L22.6136 22.1471C20.7152 21.3391 19.456 20.3241 19.456 18.1815C19.456 16.2079 20.9595 14.7042 23.309 14.7042C24.9818 14.7042 26.1847 15.287 27.0492 16.8094L25.0004 18.1251C24.5492 17.317 24.0608 16.9975 23.3089 16.9975C22.5383 16.9975 22.0496 17.4862 22.0496 18.1251C22.0496 18.9145 22.5383 19.2342 23.6659 19.7229L24.3237 20.0048C26.5604 20.9634 27.8197 21.9407 27.8197 24.1396C27.8197 26.508 25.959 27.8047 23.4592 27.8047C21.0159 27.8047 19.4371 26.6394 18.6665 25.1169"/></svg>