<svg xmlns="http://www.w3.org/2000/svg" width="120" height="120" fill="none" class="Logo-kCrwua ftFmth" viewBox="0 0 37 24" style="height:24px"><path fill="#2a6379" d="M25.416,13.046l-1.822,2.763a4.253,4.253,0,0,0-1.234-.181,4.178,4.178,0,0,0-.627.046l-4.34-8.663a4.186,4.186,0,1,0-6.531-.437l-5.97,9.113a4.182,4.182,0,1,0,2.442,1.365l5.8-8.846a4.2,4.2,0,0,0,1.173.166,4.328,4.328,0,0,0,.628-.046l4.331,8.644a4.154,4.154,0,0,0-1.121,2.844,4.221,4.221,0,0,0,8.441,0,4.146,4.146,0,0,0-.73-2.357l1.895-2.875ZM32.477,0a4.2,4.2,0,0,0-4.221,4.186,4.15,4.15,0,0,0,1.109,2.83L27.574,9.775l2.34,1.52,1.928-2.97a4.285,4.285,0,0,0,.635.047,4.186,4.186,0,1,0,0-8.372Zm0,5.86a1.674,1.674,0,1,1,1.688-1.674A1.677,1.677,0,0,1,32.477,5.86Z"/></svg>