<svg xmlns="http://www.w3.org/2000/svg" fill="none" viewBox="0 0 32 32" height="32" width="32">
<g clip-path="url(#clip0_528_309)">
<path fill="white" d="M29.0761 24.38L18.0708 1.008C17.934 0.72015 17.7218 0.474704 17.4568 0.297703C17.1917 0.120703 16.8837 0.0187509 16.5655 0.00266538C16.2467 -0.0185455 15.9283 0.0480531 15.6448 0.195216C15.3613 0.342379 15.1235 0.564471 14.9575 0.837332L3.02145 20.1707C2.84029 20.4626 2.74609 20.8002 2.74987 21.1438C2.75364 21.4874 2.85525 21.8228 3.04279 22.1107L8.87745 31.148C9.0983 31.4868 9.42267 31.7453 9.80226 31.8848C10.1819 32.0244 10.5964 32.0377 10.9841 31.9227L27.9215 26.9133C28.4401 26.76 28.8641 26.3933 29.0855 25.9067C29.3068 25.42 29.3041 24.8627 29.0761 24.38V24.38ZM26.6121 25.3827L12.2401 29.632C12.1405 29.6623 12.0348 29.6663 11.9332 29.6436C11.8316 29.6209 11.7377 29.5722 11.6605 29.5024C11.5833 29.4326 11.5255 29.344 11.4927 29.2452C11.4599 29.1464 11.4533 29.0408 11.4735 28.9387L16.6068 4.35467C16.7028 3.89467 17.3388 3.82133 17.5388 4.248L27.0441 24.432C27.0861 24.522 27.1081 24.62 27.1086 24.7194C27.109 24.8187 27.0879 24.9169 27.0467 25.0073C27.0055 25.0977 26.9452 25.178 26.87 25.2428C26.7947 25.3076 26.7063 25.3554 26.6108 25.3827H26.6121Z"></path>
</g>
<defs>
<clipPath id="clip0_528_309">
<rect fill="white" height="32" width="32"></rect>
</clipPath>
</defs>
</svg>
