<svg xmlns="http://www.w3.org/2000/svg" width="32" height="32" fill="none" viewBox="0 0 32 32"><path fill="#3178C6" d="M28.688 2H3.312C2.5874 2 2 2.5874 2 3.312V28.688C2 29.4126 2.5874 30 3.312 30H28.688C29.4126 30 30 29.4126 30 28.688V3.312C30 2.5874 29.4126 2 28.688 2Z"/><path fill="#fff" fill-rule="evenodd" d="M18.245 23.759V26.827C18.8024 27.1021 19.3965 27.2958 20.009 27.402C20.7168 27.5327 21.4352 27.597 22.155 27.594C22.8565 27.5973 23.5564 27.5266 24.243 27.383C24.8595 27.2584 25.4477 27.0211 25.978 26.683C26.4703 26.3652 26.8761 25.9302 27.159 25.417C27.6656 24.3543 27.7324 23.1347 27.345 22.023C27.1815 21.6073 26.9379 21.2278 26.628 20.906C26.2954 20.5639 25.9175 20.2688 25.505 20.029C25.03 19.7508 24.5365 19.5056 24.028 19.295C23.628 19.129 23.268 18.9677 22.948 18.811C22.6638 18.6749 22.3918 18.5147 22.135 18.332C21.9339 18.191 21.7592 18.0157 21.619 17.814C21.4978 17.6309 21.4348 17.4155 21.438 17.196C21.4353 16.994 21.4916 16.7955 21.6 16.625C21.7177 16.4465 21.8747 16.2974 22.059 16.189C22.2843 16.0564 22.5294 15.9608 22.785 15.906C23.0988 15.8363 23.4195 15.8027 23.741 15.806C24.0113 15.8069 24.2813 15.8263 24.549 15.864C24.8381 15.9031 25.1241 15.9622 25.405 16.041C25.6907 16.1202 25.9701 16.2205 26.241 16.341C26.5038 16.4582 26.7552 16.5994 26.992 16.763V13.9C26.4991 13.7135 25.9879 13.5795 25.467 13.5C24.8379 13.4085 24.2027 13.3653 23.567 13.371C22.8721 13.3673 22.1792 13.4462 21.503 13.606C20.8917 13.7457 20.3105 13.994 19.787 14.339C19.3007 14.663 18.8991 15.0988 18.616 15.61C18.316 16.1777 18.1675 16.8132 18.185 17.455C18.1628 18.3038 18.4424 19.1329 18.974 19.795C19.6262 20.5291 20.4486 21.0919 21.369 21.434C21.789 21.6073 22.1807 21.777 22.544 21.943C22.8718 22.0889 23.1869 22.2618 23.486 22.46C23.7272 22.6169 23.9391 22.8149 24.112 23.045C24.264 23.2537 24.3447 23.5058 24.342 23.764C24.3434 23.9575 24.2937 24.1479 24.198 24.316C24.0916 24.4967 23.9422 24.6482 23.763 24.757C23.5387 24.8937 23.2934 24.9924 23.037 25.049C22.7029 25.1237 22.3613 25.1589 22.019 25.154C21.3473 25.1528 20.681 25.0343 20.05 24.804C19.3908 24.5661 18.7795 24.2122 18.245 23.759V23.759ZM13.091 16.121H17.091V13.594H5.93799V16.121H9.91999V27.375H13.091V16.121Z" clip-rule="evenodd"/></svg>